<?xml version="1.0" standalone="no"?>
<!DOCTYPE svg PUBLIC "-//W3C//DTD SVG 20010904//EN"
 "http://www.w3.org/TR/2001/REC-SVG-20010904/DTD/svg10.dtd">
<svg version="1.0" xmlns="http://www.w3.org/2000/svg"
 width="231.000000pt" height="231.000000pt" viewBox="0 0 231.000000 231.000000"
 preserveAspectRatio="xMidYMid meet">
<metadata>
Created by potrace 1.11, written by Peter Selinger 2001-2013
</metadata>
<g transform="translate(0.000000,231.000000) scale(0.100000,-0.100000)"
fill="#000000" stroke="none">
<path d="M1890 1427 c-36 -18 -118 -56 -183 -86 -64 -30 -115 -56 -113 -58 2
-2 15 -6 30 -9 14 -2 38 -9 53 -15 16 -7 38 -13 50 -15 13 -1 33 -6 45 -10 20
-6 20 -8 -13 -25 -42 -22 -49 -23 -49 -5 0 8 -4 17 -9 20 -5 4 -7 -3 -4 -13 3
-11 -4 -28 -17 -41 -13 -13 -21 -32 -20 -48 3 -45 1 -49 -32 -70 l-31 -20 42
-13 42 -12 -47 -42 -48 -41 90 -13 c49 -8 96 -15 104 -16 8 -1 40 -6 70 -10
30 -4 63 -9 74 -11 10 -2 37 -6 61 -8 24 -3 47 -6 52 -8 33 -9 56 20 125 158
56 111 80 150 107 169 20 14 30 25 23 25 -7 0 -12 13 -12 30 0 32 0 33 -69 50
l-44 12 59 39 c32 21 64 41 69 43 20 7 -3 15 -125 41 -188 40 -204 40 -280 2z"/>
<path d="M1010 1334 c0 -18 -4 -25 -14 -21 -25 10 -49 -18 -49 -57 0 -44 4
-49 48 -52 l34 -3 0 79 c0 44 -4 80 -10 80 -5 0 -9 -12 -9 -26z m0 -74 c0 -15
-7 -33 -15 -40 -12 -10 -16 -8 -25 15 -7 18 -7 32 0 45 14 27 40 14 40 -20z"/>
<path d="M790 1275 c0 -43 4 -75 10 -75 6 0 10 14 10 31 0 37 19 35 38 -4 7
-15 17 -27 23 -27 13 0 12 7 -13 49 l-22 38 22 28 c33 41 15 46 -19 5 l-28
-35 -1 33 c0 17 -4 32 -10 32 -6 0 -10 -32 -10 -75z"/>
<path d="M905 1340 c3 -5 8 -10 11 -10 2 0 4 5 4 10 0 6 -5 10 -11 10 -5 0 -7
-4 -4 -10z"/>
<path d="M1170 1331 c-5 -11 -10 -36 -10 -56 0 -20 5 -45 10 -56 15 -27 66
-26 80 2 16 29 3 38 -16 11 -12 -18 -19 -20 -35 -12 -25 14 -27 91 -3 111 15
12 19 11 32 -9 15 -22 32 -29 32 -13 0 37 -72 54 -90 22z"/>
<path d="M1280 1275 l0 -75 34 0 c45 0 63 22 49 61 -6 16 -8 31 -3 34 5 3 7
11 6 18 -4 26 -19 37 -52 37 l-34 0 0 -75z m61 48 c14 -14 5 -29 -21 -36 -17
-4 -20 0 -20 23 0 29 19 35 41 13z m7 -79 c2 -14 -3 -23 -17 -27 -25 -6 -31 0
-31 30 0 20 5 24 23 21 13 -2 23 -11 25 -24z"/>
<path d="M1399 1341 c-6 -72 -2 -141 8 -141 9 0 11 13 9 40 -6 55 8 58 22 4
14 -53 27 -56 42 -9 16 47 26 51 26 9 -1 -18 3 -34 9 -34 5 0 10 32 10 70 1
87 -20 93 -43 13 -8 -29 -17 -53 -21 -53 -3 0 -13 23 -21 52 -14 46 -39 76
-41 49z"/>
<path d="M901 1262 c0 -34 3 -62 8 -62 14 0 18 90 5 108 -9 12 -12 2 -13 -46z"/>
<path d="M1083 1313 c-27 -5 -41 -60 -24 -92 12 -22 55 -29 66 -10 28 45 2
109 -42 102z m32 -43 c8 -38 -10 -66 -31 -49 -17 14 -18 51 -2 67 19 19 26 15
33 -18z"/>
<path d="M342 1118 c-14 -14 -16 -58 -3 -58 5 0 11 7 15 15 3 8 0 15 -6 15 -7
0 -6 5 2 15 16 19 8 29 -8 13z"/>
<path d="M13 1113 c13 -3 16 -12 14 -37 -2 -17 0 -41 4 -51 5 -14 8 -6 8 27 1
34 6 50 18 57 14 8 10 10 -22 10 -22 -1 -32 -3 -22 -6z"/>
<path d="M1314 1071 c2 -70 16 -77 16 -8 0 32 -4 57 -8 57 -5 0 -8 -22 -8 -49z"/>
<path d="M1205 1100 c3 -5 1 -10 -6 -10 -8 0 -7 -5 2 -17 8 -9 13 -18 12 -20
-6 -8 -2 -43 5 -43 4 0 5 22 4 50 -2 27 -8 50 -14 50 -5 0 -6 -4 -3 -10z"/>
<path d="M1488 1099 c-8 -23 5 -78 18 -83 11 -4 12 -1 6 12 -5 9 -7 32 -5 50
4 30 -11 46 -19 21z"/>
<path d="M90 1091 c-16 -6 -21 -63 -7 -77 4 -4 7 9 7 29 0 19 6 37 13 40 6 2
10 7 7 9 -3 3 -12 3 -20 -1z"/>
<path d="M133 1093 c-21 -8 -15 -22 7 -16 11 3 20 0 20 -6 0 -6 -9 -11 -21
-11 -30 0 -22 -45 9 -46 19 -1 22 4 22 36 0 37 -13 51 -37 43z m18 -56 c-1
-12 -15 -9 -19 4 -3 6 1 10 8 8 6 -3 11 -8 11 -12z"/>
<path d="M385 1086 c-16 -12 -18 -19 -10 -43 12 -33 32 -36 52 -7 12 19 11 24
-4 43 -16 20 -20 20 -38 7z m35 -31 c0 -15 -6 -25 -14 -25 -16 0 -25 19 -18
38 8 22 32 13 32 -13z"/>
<path d="M610 1095 c-7 -25 -5 -84 3 -76 4 4 7 26 4 47 -2 22 -5 35 -7 29z"/>
<path d="M893 1092 c-18 -12 -24 -47 -10 -66 23 -32 59 1 49 46 -4 19 -24 29
-39 20z m25 -37 c-2 -14 -7 -26 -13 -26 -5 0 -11 12 -13 26 -2 18 1 25 13 25
12 0 15 -7 13 -25z"/>
<path d="M1263 1093 c-7 -3 -13 -9 -13 -14 0 -4 7 -6 15 -3 8 4 15 1 15 -5 0
-6 -6 -11 -14 -11 -16 0 -27 -22 -18 -37 4 -5 17 -9 28 -9 18 0 21 6 19 34 -2
36 -13 52 -32 45z m22 -53 c-3 -5 -10 -10 -16 -10 -5 0 -9 5 -9 10 0 6 7 10
16 10 8 0 12 -4 9 -10z"/>
<path d="M1364 1092 c-17 -11 -22 -35 -13 -59 9 -24 33 -31 44 -13 3 5 0 7 -8
4 -8 -3 -17 2 -20 10 -5 11 0 16 13 16 11 0 20 6 20 14 0 18 -23 37 -36 28z
m21 -22 c3 -5 -1 -10 -9 -10 -9 0 -16 5 -16 10 0 6 4 10 9 10 6 0 13 -4 16
-10z"/>
<path d="M190 1048 c0 -46 7 -48 13 -3 6 45 27 44 27 -2 0 -23 3 -33 8 -25 5
7 7 26 4 42 -3 24 -9 30 -28 30 -21 0 -24 -4 -24 -42z"/>
<path d="M264 1079 c-4 -7 3 -19 15 -28 12 -9 19 -20 15 -24 -4 -4 -14 -1 -22
6 -13 10 -14 9 -10 -3 7 -22 37 -24 45 -4 4 10 0 22 -10 29 -21 15 -22 29 -2
21 8 -3 15 -1 15 4 0 14 -37 12 -46 -1z"/>
<path d="M450 1048 c0 -44 7 -49 12 -8 2 14 7 31 11 38 5 8 3 12 -7 12 -12 0
-16 -11 -16 -42z"/>
<path d="M493 1052 c2 -45 17 -46 17 -1 0 16 5 29 10 29 9 0 15 -28 11 -57 -1
-7 2 -13 7 -13 5 0 9 14 8 32 0 17 5 33 12 36 8 2 12 -7 12 -27 0 -17 4 -31 9
-31 4 0 8 15 7 33 -1 31 -3 32 -48 35 l-47 3 2 -39z"/>
<path d="M640 1048 c0 -44 12 -47 14 -3 1 36 20 32 27 -7 6 -32 6 -31 8 10 1
39 -1 42 -24 42 -23 0 -25 -4 -25 -42z"/>
<path d="M712 1074 c-17 -31 0 -61 31 -55 5 1 7 -4 4 -11 -2 -7 -12 -12 -22
-10 -10 2 -14 -1 -10 -7 10 -17 33 -13 43 7 4 9 8 33 8 52 -1 28 -5 36 -23 38
-12 2 -25 -4 -31 -14z m38 -18 c0 -14 -4 -27 -9 -31 -12 -7 -25 31 -16 45 11
18 25 10 25 -14z"/>
<path d="M814 1078 c2 -7 6 -21 11 -31 4 -9 4 -29 0 -45 -9 -37 9 -17 24 27
14 42 14 64 1 56 -6 -4 -8 -10 -5 -15 3 -5 1 -11 -5 -15 -5 -3 -10 3 -10 14 0
12 -4 21 -9 21 -5 0 -8 -6 -7 -12z"/>
<path d="M950 1057 c0 -20 3 -37 8 -38 4 0 15 -2 25 -4 9 -2 17 0 18 3 5 41 4
53 -3 64 -5 8 -8 1 -8 -19 0 -17 -4 -35 -10 -38 -10 -6 -11 -3 -14 34 -2 36
-16 34 -16 -2z"/>
<path d="M1020 1049 c0 -26 4 -38 11 -34 6 4 8 13 5 21 -7 17 3 44 15 44 5 0
9 -17 10 -37 0 -30 2 -33 8 -18 5 11 7 27 5 35 -1 8 -3 18 -3 23 -1 4 -12 7
-26 7 -23 0 -25 -4 -25 -41z"/>
<path d="M1097 1083 c-11 -11 -8 -48 5 -61 20 -20 33 -14 14 7 -9 10 -14 25
-10 35 10 27 27 13 29 -23 1 -25 -3 -35 -18 -40 -14 -5 -17 -10 -8 -15 22 -14
41 15 41 60 0 39 -2 44 -23 44 -13 0 -27 -3 -30 -7z"/>
<path d="M1418 1073 c-2 -10 -2 -29 1 -43 5 -23 6 -23 11 8 6 41 24 47 27 8 1
-15 5 -31 8 -35 4 -3 5 12 3 34 -2 32 -7 41 -25 43 -14 2 -23 -3 -25 -15z"/>
<path d="M330 1035 c0 -8 5 -15 10 -15 6 0 10 7 10 15 0 8 -4 15 -10 15 -5 0
-10 -7 -10 -15z"/>
</g>
</svg>
